# AST/ASF file generated using VICON BodyLanguage
# -----------------------------------------------
:version 1.10
:name VICON
:units
  mass 1.0
  length 0.45
  angle deg
:documentation
   .ast/.asf automatically generated from VICON data using
   VICON BodyBuilder and BodyLanguage model FoxedUp or BRILLIANT.MOD
:root
   order TX TY TZ RX RY RZ
   axis XYZ
   position 0 0 0  
   orientation 0 0 0 
:bonedata
  begin
     id 1 
     name lhipjoint
     direction 0.528046 -0.759594 0.379717 
     length 2.39752 
     axis 0 0 0  XYZ
  end
  begin
     id 2 
     name lfemur
     direction 0.34202 -0.939693 0  
     length 7.31175  
     axis 0 0 20  XYZ
    dof rx ry rz
    limits (-160.0 20.0)
           (-70.0 70.0)
           (-60.0 70.0)
  end
  begin
     id 3 
     name ltibia
     direction 0.34202 -0.939693 0   
     length 7.52482   
     axis 0 0 20   XYZ
    dof rx
    limits (-10.0 170.0)
  end
  begin
     id 4 
     name lfoot
     direction 0.0675379 -0.185559 0.980309   
     length 2.00961   
     axis -90 7.62852e-016 20   XYZ
    dof rx rz
    limits (-45.0 90.0)
           (-70.0 20.0)
  end
  begin
     id 5 
     name ltoes
     direction 1.5352e-011 -4.22286e-011 1   
     length 1.01383   
     axis -90 7.62852e-016 20   XYZ
    dof rx
    limits (-90.0 20.0)
  end
  begin
     id 6 
     name rhipjoint
     direction -0.510274 -0.769251 0.384544   
     length 2.36742  
     axis 0 0 0  XYZ 
  end
  begin
     id 7 
     name rfemur
     direction -0.34202 -0.939693 0   
     length 7.45325   
     axis 0 0 -20   XYZ
    dof rx ry rz
    limits (-160.0 20.0)
           (-70.0 70.0)
           (-70.0 60.0)
  end
  begin
     id 8 
     name rtibia
     direction -0.34202 -0.939693 0   
     length 7.49587   
     axis 0 0 -20   XYZ
    dof rx
    limits (-10.0 170.0)
 end
 begin
     id 9 
     name rfoot
     direction -0.106475 -0.292536 0.950308   
     length 2.20898  
     axis -90 -7.62852e-016 -20   XYZ
    dof rx rz
    limits (-45.0 90.0)
           (-20.0 70.0)
  end
  begin
     id 10 
     name rtoes
     direction -1.53597e-011 -4.22023e-011 1   
     length 1.10065   
     axis -90 -7.62852e-016 -20   XYZ
    dof rx
    limits (-90.0 20.0)
  end
  begin
     id 11 
     name lowerback
     direction 0.0260024 0.998026 -0.0571652   
     length 2.11214   
     axis 0 0 0   XYZ
    dof rx ry rz
    limits (-20.0 45.0)
           (-30.0 30.0)
           (-30.0 30.0)
  end
  begin
     id 12 
     name upperback
     direction 0.0216202 0.999542 -0.0211766   
     length 2.11689   
     axis 0 0 0   XYZ
    dof rx ry rz
    limits (-20.0 45.0)
           (-30.0 30.0)
           (-30.0 30.0)
  end
  begin
     id 13 
     name thorax
     direction 0.00883312 0.999944 0.00589057   
     length 2.11821   
     axis 0 0 0   XYZ
    dof rx ry rz
    limits (-20.0 45.0)
           (-30.0 30.0)
           (-30.0 30.0)
  end
  begin
     id 14 
     name lowerneck
     direction -0.059386 0.994433 0.0870401   
     length 1.81176   
     axis 0 0 0   XYZ
    dof rx ry rz
    limits (-20.0 45.0)
           (-30.0 30.0)
           (-30.0 30.0)
  end
  begin
     id 15 
     name upperneck
     direction 0.0506457 0.97328 -0.223967   
     length 1.82382   
     axis 0 0 0   XYZ
    dof rx ry rz
    limits (-20.0 45.0)
           (-30.0 30.0)
           (-30.0 30.0)
  end
  begin
     id 16
     name head
     direction 0.0205902 0.996147 -0.0852487  
     length 1.84805  
     axis 0 0 0   XYZ
    dof rx ry rz
    limits (-20.0 45.0)
           (-30.0 30.0)
           (-30.0 30.0)
  end
  begin
     id 17 
     name lclavicle
     direction 0.949493 0.303881 -0.0782325  
     length 3.60584  
     axis 0 0 0   XYZ
    dof ry rz
    limits (-20.0 10.0)
           (0.0 20.0)
  end
  begin
     id 18 
     name lhumerus
     direction 1 -4.48965e-011 1.48782e-027   
     length 4.95681   
     axis 180 -30 -90   XYZ
    dof rx ry rz
    limits (-60.0 90.0)
           (-90.0 90.0)
           (-90.0 90.0)
  end
  begin
     id 19
     name lradius
     direction 1 -4.48952e-011 2.06528e-027   
     length 3.40915   
     axis 180 -30 -90   XYZ
    dof rx
    limits (-10.0 170.0)
  end
  begin
     id 20
     name lwrist
     direction 1 -4.48964e-011 1.28021e-027   
     length 1.70457   
     axis -1.61767e-015 90 90   XYZ
    dof ry
    limits (-180.0 0.0)
 end
  begin
     id 21 
     name lhand
     direction 1 -4.49094e-011 2.54887e-027   
     length 0.616403   
     axis -1.63363e-015 90 90   XYZ
    dof rx rz
    limits (-90.0 90.0)
           (-45.0 45.0)
  end
  begin
     id 22 
     name lfingers
     direction 1 -4.49002e-011 5.11407e-027   
     length 0.49696   
     axis -3.26723e-015 90 90   XYZ
    dof rx
    limits (0.0 90.0)
  end
  begin
     id 23
     name lthumb
     direction 0.707107 -6.34998e-011 0.707107   
     length 0.713539   
     axis -90 45 -2.25915e-014   XYZ
    dof rx rz
    limits (-45.0 45.0)
           (-45.0 45.0)
  end
  begin
     id 24 
     name rclavicle
     direction -0.937751 0.334612 -0.0930482   
     length 3.46287  
     axis 0 0 0   XYZ 
    dof ry rz
    limits (-10.0 20.0)
           (-20.0 0.0)
  end
  begin
     id 25 
     name rhumerus
     direction -1 -4.48962e-011 3.59972e-027  
     length 5.352   
     axis 180 30 90   XYZ
    dof rx ry rz
    limits (-90.0 60.0)
           (-90.0 90.0)
           (-90.0 90.0)
  end
  begin
     id 26 
     name rradius
     direction -1 -4.48987e-011 -3.76925e-027   
     length 3.43721   
     axis 180 30 90   XYZ
    dof rx
    limits (-10.0 170.0)
  end
  begin
     id 27 
     name rwrist
     direction -1 -4.48943e-011 1.28112e-027   
     length 1.7186   
     axis -1.61767e-015 -90 -90   XYZ
    dof ry
    limits (-180.0 0.0)
  end
  begin
     id 28
     name rhand
     direction -1 -4.49027e-011 2.55483e-027   
     length 0.72009   
     axis -1.63363e-015 -90 -90   XYZ
    dof rx rz
    limits (-90.0 90.0)
           (-45.0 45.0)
  end
  begin
     id 29
     name rfingers
     direction -1 -4.48827e-011 5.14506e-027   
     length 0.580555   
     axis -3.26723e-015 -90 -90   XYZ
    dof rx
    limits (0.0 90.0)
  end
  begin
     id 30
     name rthumb
     direction -0.707107 -6.34936e-011 0.707107   
     length 0.833564   
     axis -90 -45 2.25915e-014   XYZ
    dof rx rz
    limits (-45.0 45.0)
           (-45.0 45.0)
  end
:hierarchy
  begin
    root lhipjoint rhipjoint lowerback
    lhipjoint lfemur
    lfemur ltibia
    ltibia lfoot
    lfoot ltoes
    rhipjoint rfemur
    rfemur rtibia
    rtibia rfoot
    rfoot rtoes
    lowerback upperback
    upperback thorax
    thorax lowerneck lclavicle rclavicle
    lowerneck upperneck
    upperneck head
    lclavicle lhumerus
    lhumerus lradius
    lradius lwrist
    lwrist lhand lthumb
    lhand lfingers
    rclavicle rhumerus
    rhumerus rradius
    rradius rwrist
    rwrist rhand rthumb
    rhand rfingers
  end

#!OML:ASF H:\Terrain\Patient Classification 1\Terrain2\Thursday\justin.ASF
:FULLY-SPECIFIED
:DEGREES
488
root -8.55184 17.7152 21.7903 153.33 -86.464 -152.518
lowerback 7.18827 -0.196276 -2.41433
upperback 2.91351 -0.472172 2.60164
thorax -0.978644 -0.302592 4.08577
lowerneck -13.5635 3.67008 -5.2722
upperneck 30.8946 5.59349 0.950118
head 12.2562 1.67532 1.99064
rclavicle 1.24737e-014 7.95139e-016
rhumerus -29.4282 -5.60194 -82.8056
rradius 34.802
rwrist -11.2556
rhand -18.8273 11.839
rfingers 7.12502
rthumb 7.47186 -18.0091
lclavicle 1.24737e-014 7.95139e-016
lhumerus -30.1246 3.07586 79.7683
lradius 48.2791
lwrist 8.89536
lhand -17.6335 21.1511
lfingers 7.12502
lthumb 8.62401 50.9549
rfemur -20.8375 -1.55734 21.6514
rtibia 50.1894
rfoot -20.0715 -1.31874
rtoes -0.726867
lfemur -14.5907 5.3861 -18.7525
ltibia 22.7482
lfoot -7.52739 -17.7607
ltoes 13.3818
489
root -8.59494 17.6852 21.7826 152.262 -86.6636 -151.489
lowerback 7.25445 -0.0639316 -2.31957
upperback 2.899 -0.290144 2.48115
thorax -1.04801 -0.207986 3.89291
lowerneck -13.7232 3.75251 -5.02832
upperneck 30.7139 5.67847 0.962238
head 12.2195 1.75871 1.96793
rclavicle 3.47873e-015 -4.77083e-015
rhumerus -29.4745 -6.0894 -82.7277
rradius 34.5967
rwrist -11.0804
rhand -18.9085 11.7176
rfingers 7.12502
rthumb 7.39351 -18.1332
lclavicle 3.47873e-015 -4.77083e-015
lhumerus -29.8834 2.14291 79.8627
lradius 48.6421
lwrist 9.2489
lhand -18.2689 21.031
lfingers 7.12502
lthumb 8.01077 50.8592
rfemur -20.8697 -1.71257 21.4984
rtibia 49.3139
rfoot -20.5221 -0.85617
rtoes -1.91929
lfemur -14.5657 5.3564 -18.7509
ltibia 23.0695
lfoot -7.18692 -18.5711
ltoes 17.7517
490
root -8.63971 17.6806 21.7735 150.627 -86.8468 -149.886
lowerback 7.26163 0.0716233 -2.14545
upperback 2.90327 -0.0985291 2.32951
thorax -1.06503 -0.109353 3.62105
lowerneck -13.949 3.86317 -4.65455
upperneck 30.6153 5.78639 0.92709
head 12.2356 1.85618 1.91245
rclavicle -6.31141e-015 3.97569e-016
rhumerus -29.5887 -6.71084 -82.6795
rradius 34.5751
rwrist -11.1375
rhand -18.8856 11.6469
rfingers 7.12502
rthumb 7.41557 -18.2032
lclavicle -6.31141e-015 3.97569e-016
lhumerus -29.5691 1.32013 79.8984
lradius 48.9129
lwrist 9.3143
lhand -18.7161 20.7755
lfingers 7.12502
lthumb 7.57919 50.6197
rfemur -20.9747 -2.56069 21.219
rtibia 48.3809
rfoot -20.7975 1.64842
rtoes 0.270387
lfemur -14.5079 5.18592 -18.7082
ltibia 23.4055
lfoot -7.36157 -19.0097
ltoes 18.3356
491
root -8.68172 17.6842 21.7617 147.868 -87.0869 -147.197
lowerback 7.30459 0.0711624 -2.06253
upperback 2.87181 -0.092932 2.32519
thorax -1.12205 -0.104382 3.56953
lowerneck -13.9168 4.10232 -4.57796
upperneck 30.3685 6.16831 0.782014
head 12.126 2.03228 1.89211
rclavicle 3.03147e-015 2.38542e-015
rhumerus -29.7168 -6.7752 -82.6248
rradius 34.5953
rwrist -11.4225
rhand -19.1128 11.2752
rfingers 7.12502
rthumb 7.19629 -18.5825
lclavicle 3.03147e-015 2.38542e-015
lhumerus -29.5195 1.16036 79.9783
lradius 49.2273
lwrist 8.92891
lhand -18.3138 20.6531
lfingers 7.12502
lthumb 7.96751 50.483
rfemur -20.7047 2.78259 21.2133
rtibia 47.3771
rfoot -20.9103 -1.07123
rtoes 2.59901
lfemur -14.4011 4.97545 -18.6425
ltibia 23.6647
lfoot -8.14316 -19.1203
ltoes 14.7395
492
root -8.72509 17.6823 21.7464 146.651 -87.3947 -145.961
lowerback 7.25435 0.00816053 -2.27662
upperback 2.80297 -0.186637 2.40264
thorax -1.15649 -0.150139 3.77897
lowerneck -13.7622 4.40894 -4.75649
upperneck 30.0421 6.67217 0.733474
head 11.9431 2.25096 1.96025
rclavicle -2.83268e-015 1.11319e-014
rhumerus -29.8213 -6.37867 -82.5345
rradius 34.4978
rwrist -11.6555
rhand -19.2769 11.2936
rfingers 7.12502
rthumb 7.03783 -18.5694
lclavicle -2.83268e-015 1.11319e-014
lhumerus -29.6763 1.16606 80.1364
lradius 49.557
lwrist 8.75015
lhand -18.3273 20.5573
lfingers 7.12502
lthumb 7.95446 50.3876
rfemur -20.8198 2.82452 20.8396
rtibia 46.4564
rfoot -20.7718 0.206271
rtoes 2.36917
lfemur -14.3284 4.87421 -18.683
ltibia 23.7531
lfoot -8.36076 -19.3985
ltoes 14.5437
493
root -8.76813 17.6738 21.7297 149.438 -87.7289 -148.614
lowerback 7.08321 0.0150836 -2.69133
upperback 2.73095 -0.197381 2.42726
thorax -1.13259 -0.154965 4.0397
lowerneck -13.6999 4.69857 -4.7418
upperneck 29.7695 7.14931 0.541601
head 11.8176 2.45905 1.94264
rclavicle -2.98177e-016 -6.36111e-015
rhumerus -29.87 -6.25086 -82.3661
rradius 34.3259
rwrist -11.7016
rhand -19.0022 11.5179
rfingers 7.12502
rthumb 7.30303 -18.3361
lclavicle -2.98177e-016 -6.36111e-015
lhumerus -29.7488 0.926113 80.3439
lradius 49.8567
lwrist 9.06288
lhand -18.783 20.4565
lfingers 7.12502
lthumb 7.51462 50.303
rfemur -20.975 3.63731 20.3303
rtibia 45.6282
rfoot -20.7269 0.801248
rtoes 2.44109
lfemur -14.3688 5.04596 -18.9218
ltibia 23.8299
lfoot -8.30476 -19.9951
ltoes 14.6131
494
root -8.81276 17.6649 21.711 149.811 -88.0636 -148.898
lowerback 6.9237 0.0374279 -2.92505
upperback 2.69916 -0.176935 2.39903
thorax -1.0776 -0.144826 4.14023
lowerneck -13.5963 4.96515 -4.42332
upperneck 29.4174 7.54705 0.222172
head 11.6765 2.65468 1.8144
rclavicle 5.46658e-016 -3.97569e-016
rhumerus -29.8939 -6.44721 -82.2368
rradius 34.1351
rwrist -11.5304
rhand -18.7638 11.4414
rfingers 7.12502
rthumb 7.53314 -18.4045
lclavicle 5.46658e-016 -3.97569e-016
lhumerus -29.6705 0.604778 80.4448
lradius 50.1512
lwrist 9.308
lhand -18.7235 20.4255
lfingers 7.12502
lthumb 7.572 50.2699
rfemur -21.0606 4.57536 19.9183
rtibia 44.971
rfoot -20.9498 1.394
rtoes 2.79883
lfemur -14.3739 5.25877 -19.066
ltibia 23.9432
lfoot -7.97696 -20.8487
ltoes 15.3759
495
root -8.857 17.6648 21.6917 140.365 -88.4152 -139.465
lowerback 6.83392 -0.00345137 -2.83047
upperback 2.72364 -0.223742 2.35942
thorax -0.998946 -0.169357 4.04791
lowerneck -13.6263 5.19602 -4.1322
upperneck 29.1547 7.84773 0.117685
head 11.5896 2.82705 1.76387
rclavicle 1.63997e-015 3.18055e-015
rhumerus -29.9041 -6.9422 -82.1914
rradius 33.9122
rwrist -11.0403
rhand -18.8944 11.3708
rfingers 7.12502
rthumb 7.40711 -18.4796
lclavicle 1.63997e-015 3.18055e-015
lhumerus -29.4906 0.298029 80.4662
lradius 50.3595
lwrist 9.29456
lhand -18.4607 20.332
lfingers 7.12502
lthumb 7.82569 50.1672
rfemur -21.0907 4.9968 19.7081
rtibia 44.3647
rfoot -21.1234 2.40024
rtoes 3.85657
lfemur -14.2711 5.38222 -18.9651
ltibia 23.9872
lfoot -7.57582 -21.6921
ltoes 16.4081
496
root -8.89811 17.6588 21.6751 126.87 -88.6597 -126.002
lowerback 6.82068 -0.0671871 -2.74128
upperback 2.69962 -0.301686 2.35971
thorax -1.00994 -0.206908 4.00344
lowerneck -13.6993 5.46198 -3.98077
upperneck 29.0467 8.22052 0.0632651
head 11.5627 3.01288 1.76889
rclavicle -5.06901e-015 1.51076e-014
rhumerus -30.0007 -7.11804 -82.2341
rradius 33.7123
rwrist -10.9409
rhand -19.0734 11.396
rfingers 7.12502
rthumb 7.23427 -18.4604
lclavicle -5.06901e-015 1.51076e-014
lhumerus -29.5144 0.167106 80.5344
lradius 50.5294
lwrist 9.13581
lhand -18.2771 20.117
lfingers 7.12502
lthumb 8.0029 49.9455
rfemur -21.1627 4.99745 19.4988
rtibia 43.7989
rfoot -20.9907 3.77259
rtoes 4.87018
lfemur -14.1593 5.54499 -18.8578
ltibia 24.0179
lfoot -7.8163 -22.2158
ltoes 14.8996
497
root -8.94202 17.6659 21.6629 116.251 -88.9257 -115.441
lowerback 6.76842 -0.135964 -2.85223
upperback 2.6747 -0.397657 2.36725
thorax -0.996922 -0.254754 4.08101
lowerneck -13.5285 5.82855 -3.89483
upperneck 28.7672 8.74874 -0.0520819
head 11.4183 3.26445 1.76874
rclavicle -7.35503e-015 8.34896e-015
rhumerus -30.1163 -6.77032 -82.2706
rradius 33.5218
rwrist -11.4278
rhand -18.8895 11.614
rfingers 7.12502
rthumb 7.41184 -18.2362
lclavicle -7.35503e-015 8.34896e-015
lhumerus -29.7204 0.3078 80.6161
lradius 50.7495
lwrist 8.84541
lhand -18.1079 19.9269
lfingers 7.12502
lthumb 8.16617 49.7491
rfemur -21.1245 5.53508 19.123
rtibia 43.2954
rfoot -20.9444 4.57827
rtoes 4.38695
lfemur -14.0134 5.59563 -18.961
ltibia 24.107
lfoot -8.7566 -22.3444
ltoes 11.0581
498
root -8.98621 17.6719 21.6508 94.5949 -89.1486 -93.855
lowerback 6.63265 -0.136831 -2.77113
upperback 2.75257 -0.392945 2.25438
thorax -0.843381 -0.255597 3.91516
lowerneck -13.5278 6.10253 -3.78084
upperneck 28.4981 9.10242 0.0113785
head 11.3075 3.46471 1.81259
rclavicle 1.14301e-015 -5.96354e-015
rhumerus -30.0765 -7.16488 -82.187
rradius 33.203
rwrist -11.3812
rhand -18.5803 11.8244
rfingers 7.12502
rthumb 7.71027 -18.0151
lclavicle 1.14301e-015 -5.96354e-015
lhumerus -29.5956 0.183112 80.6686
lradius 50.831
lwrist 8.62107
lhand -18.1421 20.0152
lfingers 7.12502
lthumb 8.13315 49.8387
rfemur -21.0264 6.69784 18.7576
rtibia 42.8687
rfoot -21.1462 4.70975
rtoes 3.96027
lfemur -13.8645 5.57627 -19.0715
ltibia 24.2011
lfoot -9.56192 -22.5903
ltoes 7.81635
499
root -9.02576 17.6524 21.6397 62.0228 -89.0518 -61.358
lowerback 6.62363 -0.121271 -2.44926
upperback 2.79148 -0.354182 2.09573
thorax -0.805715 -0.234386 3.5648
lowerneck -13.6453 6.29327 -3.54459
upperneck 28.3776 9.3352 0.00829349
head 11.2915 3.60509 1.80601
rclavicle 3.08116e-015 -4.37326e-015
rhumerus -30.0747 -7.72325 -82.1778
rradius 32.8284
rwrist -10.9743
rhand -18.7534 11.41
rfingers 7.12502
rthumb 7.54314 -18.4355
lclavicle 3.08116e-015 -4.37326e-015
lhumerus -29.4165 -0.0924874 80.7065
lradius 50.8059
lwrist 8.43689
lhand -18.1437 20.1931
lfingers 7.12502
lthumb 8.13166 50.0166
rfemur -21.0115 7.64428 18.4903
rtibia 42.5638
rfoot -21.2369 4.99572
rtoes 4.01637
lfemur -13.6675 5.50576 -19.0508
ltibia 24.1779
lfoot -9.41787 -23.2252
ltoes 8.18277
500
root -9.06561 17.6393 21.6279 42.9835 -88.6444 -42.4092
lowerback 6.73953 -0.0989883 -2.07815
upperback 2.76023 -0.303524 1.99029
thorax -0.909747 -0.203653 3.24301
lowerneck -13.6411 6.49188 -3.11014
upperneck 28.2239 9.59889 -0.278801
head 11.2687 3.74501 1.66433
rclavicle -4.87022e-015 7.15625e-015
rhumerus -30.2077 -7.99878 -82.1653
rradius 32.515
rwrist -10.8404
rhand -19.0344 11.1624
rfingers 7.12502
rthumb 7.27195 -18.6926
lclavicle -4.87022e-015 7.15625e-015
lhumerus -29.4162 -0.424325 80.7886
lradius 50.8722
lwrist 8.3312
lhand -18.0281 20.2141
lfingers 7.12502
lthumb 8.2432 50.0333
rfemur -20.9576 8.28936 18.3636
rtibia 42.2596
rfoot -21.2182 5.33175
rtoes 2.92944
lfemur -13.4762 5.37903 -18.9204
ltibia 24.2299
lfoot -9.10735 -23.8207
ltoes 9.47473
